PathFileType	4	(X/Y/Z)	CPRIT_Patient3_R_AnkleIso_Processed.TRC
DataRate	CameraRate	NumFrames	NumMarkers	Units	OrigDataRate	OrigDataStartFrame	OrigNumFrames
150.227617602428	150.227617602428	4	39	m	150.227617602428	414	       661
Frame#	Time	R.Heel			R.Midfoot.Superior			R.Midfoot.Lateral			R.Toe			L.Heel			L.Midfoot.Superior			L.Midfoot.Lateral			L.Toe			R.Shank.Superior			R.Shank.Inferior			R.Shank.Lateral			R.Shank.Posterior			L.Shank.Superior			L.Shank.Inferior			L.Shank.Posterior			L.Shank.Lateral			R.Patella			L.Patella			R.Thigh.Superior			R.Thigh.Lateral			R.Thigh.Inferior			L.Thigh.Superior			L.Thigh.Inferior			L.Thigh.Lateral			L.Asis			R.Asis			Sacral			R.Shoulder			L.Shoulder			C7			J.Notch			Sternum			Thoracic			L.Elbow			L.Wrist			R.Elbow			R.Wrist			R.PSIS			L.PSIS			
		X1	Y1	Z1	X2	Y2	Z2	X3	Y3	Z3	X4	Y4	Z4	X5	Y5	Z5	X6	Y6	Z6	X7	Y7	Z7	X8	Y8	Z8	X9	Y9	Z9	X10	Y10	Z10	X11	Y11	Z11	X12	Y12	Z12	X13	Y13	Z13	X14	Y14	Z14	X15	Y15	Z15	X16	Y16	Z16	X17	Y17	Z17	X18	Y18	Z18	X19	Y19	Z19	X20	Y20	Z20	X21	Y21	Z21	X22	Y22	Z22	X23	Y23	Z23	X24	Y24	Z24	X25	Y25	Z25	X26	Y26	Z26	X27	Y27	Z27	X28	Y28	Z28	X29	Y29	Z29	X30	Y30	Z30	X31	Y31	Z31	X32	Y32	Z32	X33	Y33	Z33	X34	Y34	Z34	X35	Y35	Z35	X36	Y36	Z36	X37	Y37	Z37	X38	Y38	Z38	X39	Y39	Z39	

414	2.749161616162	0.994642768933	0.074903427931	0.181868256735	1.114643016770	0.197477697897	0.135319373131	1.085647036405	0.100352601878	0.197682266294	1.229038440882	0.210202119332	0.085695009538	0.643954453668	0.042754020723	-0.093808313546	0.806581471328	0.095580520122	-0.144523272634	0.709494301488	0.032703812708	-0.166012425648	0.920213037110	0.056608138966	-0.173516667473	0.994606812533	0.427496459700	0.135023214032	1.025680411427	0.310802746679	0.152701450704	0.946063291044	0.351550553942	0.207718439632	0.864207500825	0.377634685305	0.147737931447	0.770351684763	0.363380809162	-0.167042712878	0.758073840020	0.236058287003	-0.151220244899	0.631958156268	0.344572160890	-0.150227942257	0.695853492138	0.278174798621	-0.204323151656	0.969986079846	0.546782854545	0.095403227214	0.800310609823	0.465817409507	-0.165781840844	0.879872582622	0.836659661864	0.086639452069	0.832767613351	0.753060133809	0.143849743536	0.933571088414	0.692181783527	0.065119301909	0.860005633682	0.775706129769	-0.181926602821	0.842478746502	0.611295035658	-0.167948478309	0.760995955943	0.704843005365	-0.240150955214	0.853706539402	0.936492927841	-0.176439966357	0.817644460653	0.952083186976	0.064729997290	0.647863571878	0.986211574071	-0.072887882539	0.772777325383	1.438644499034	0.091233343816	0.814536382978	1.455679504768	-0.217314210874	0.751267675476	1.477756115429	-0.063047243618	0.853190371501	1.361709981608	-0.056487325600	0.891133538434	1.183143028351	-0.064417957724	0.645963342262	1.327506415959	-0.082580999813	0.850254085555	1.173137829801	-0.383514329370	1.008730352762	0.988498137557	-0.444374075928	0.768536484851	1.165699434949	0.275644814319	0.906696385337	0.991649190415	0.405049679143	0.644210568497	0.987429133560	-0.036012754005	0.651364246089	0.986844004917	-0.110032511386	
415	2.755818181818	0.994280064088	0.075223353977	0.181992821181	1.114841948820	0.197116491046	0.134997515032	1.085534747232	0.100067214950	0.197377956223	1.229157485174	0.208974319516	0.084683682486	0.643954084047	0.042753568298	-0.093808297381	0.806579927674	0.095577775749	-0.144527711383	0.709493984028	0.032702951127	-0.166012700261	0.920215278375	0.056606633212	-0.173520880905	0.994521585903	0.427458447125	0.134924248935	1.025615357312	0.310767191474	0.152644734090	0.945999095321	0.351516637259	0.207634688323	0.864096765663	0.377601790727	0.147717216943	0.770324094406	0.363384512284	-0.167051799369	0.758057063115	0.236060322468	-0.151227234991	0.631931098058	0.344567299957	-0.150225080940	0.695827780606	0.278172465574	-0.204327447561	0.969901898593	0.546730131774	0.095331096187	0.800276064556	0.465816549330	-0.165789271268	0.879891325447	0.836643653666	0.086576474357	0.832800743947	0.753078226028	0.143823524584	0.933542870460	0.692135238496	0.065052403763	0.859978315805	0.775699978551	-0.181934529519	0.842448328191	0.611289347979	-0.167955489118	0.760970940946	0.704848754490	-0.240155533789	0.853682436380	0.936486927314	-0.176448452836	0.817641128752	0.952085155632	0.064727685977	0.647850047433	0.986225799807	-0.072859931161	0.772802750663	1.438640691278	0.091242458841	0.814560736817	1.455670492305	-0.217295154284	0.751306694877	1.477752370418	-0.063039277729	0.853197416397	1.361688639745	-0.056472801461	0.891109780922	1.183107954587	-0.064412941716	0.645976393497	1.327516604156	-0.082560184222	0.850245867337	1.173137118189	-0.383512266307	1.008727478055	0.988497079707	-0.444370057710	0.768530549030	1.165702017373	0.275662904404	0.906695150618	0.991646991004	0.405053314632	0.644202216366	0.987441580370	-0.035983574675	0.651349890695	0.986853861933	-0.110005933204	
416	2.762474747475	0.993905603693	0.075594709046	0.182156521618	1.115085295727	0.196720765526	0.134674408044	1.085420583181	0.099773711380	0.197086749097	1.229300975855	0.207620944395	0.083622944353	0.643953595765	0.042753019948	-0.093808503012	0.806577998235	0.095575161896	-0.144532937489	0.709493474167	0.032701839765	-0.166013157013	0.920217813011	0.056605152683	-0.173526078780	0.994438648695	0.427426935475	0.134835541565	1.025563501547	0.310742533338	0.152604342537	0.945942154478	0.351489887494	0.207560075229	0.863990596621	0.377571072130	0.147707904706	0.770289590017	0.363389071240	-0.167065243638	0.758035632742	0.236063223003	-0.151237409276	0.631897646884	0.344561001032	-0.150225152762	0.695795606911	0.278169262182	-0.204334655295	0.969818844431	0.546681030287	0.095268384142	0.800232833741	0.465814529157	-0.165800543921	0.879912843687	0.836629799199	0.086509178981	0.832836647710	0.753102055413	0.143797601600	0.933517033821	0.692090604427	0.064988140770	0.859947679978	0.775691536139	-0.181946665658	0.842411085735	0.611281756304	-0.167966866614	0.760942460490	0.704854350885	-0.240166206213	0.853658015442	0.936478797021	-0.176461452930	0.817639401017	0.952083644554	0.064720853675	0.647837776362	0.986240587998	-0.072833900248	0.772828338532	1.438636761370	0.091252504229	0.814579994216	1.455659464760	-0.217276679366	0.751344401368	1.477746671324	-0.063029934377	0.853204102456	1.361667417451	-0.056458386631	0.891088448051	1.183072242703	-0.064409308363	0.645989032872	1.327524241984	-0.082535645881	0.850232069248	1.173132903590	-0.383508215389	1.008723521829	0.988495107929	-0.444364951923	0.768524524987	1.165705295675	0.275683236745	0.906693819855	0.991644654197	0.405057201478	0.644195869663	0.987453817872	-0.035955755888	0.651337065079	0.986864654689	-0.109981115741	
417	2.769131313131	0.993520499071	0.076020869726	0.182359058578	1.115374979721	0.196288380804	0.134349005860	1.085303536183	0.099474144459	0.196810105739	1.229467617739	0.206138170118	0.082515098274	0.643952989399	0.042752383616	-0.093808937416	0.806575697494	0.095572698610	-0.144538912972	0.709492779425	0.032700489048	-0.166013796246	0.920220530402	0.056603778522	-0.173532071590	0.994358813814	0.427403344983	0.134757010271	1.025526715101	0.310730705252	0.152579733624	0.945894381373	0.351471819747	0.207494315260	0.863890722378	0.377543727504	0.147709743806	0.770247934736	0.363394589854	-0.167082679940	0.758009370090	0.236067055786	-0.151250609769	0.631857581528	0.344553192851	-0.150228109925	0.695756916515	0.278165262196	-0.204344601049	0.969737760347	0.546636911167	0.095215002319	0.800180853665	0.465811436931	-0.165815271400	0.879936144730	0.836618610429	0.086439674545	0.832873609952	0.753130971576	0.143772662774	0.933493482691	0.692049041006	0.064927674706	0.859913767313	0.775680595974	-0.181962435016	0.842366896610	0.611272055332	-0.167982217720	0.760910455328	0.704859618143	-0.240182526210	0.853633471995	0.936468331047	-0.176478225380	0.817638678016	0.952079330943	0.064710065800	0.647826509154	0.986256215172	-0.072810349272	0.772854278336	1.438632830597	0.091263233517	0.814594699877	1.455646748552	-0.217259098478	0.751381075015	1.477739388107	-0.063019541157	0.853210653969	1.361646753964	-0.056444515450	0.891069700455	1.183036095435	-0.064407030116	0.646001556749	1.327529748482	-0.082508086903	0.850213017110	1.173125478985	-0.383502450477	1.008718618581	0.988492300119	-0.444359051311	0.768518666859	1.165709324848	0.275705366848	0.906692323975	0.991642224554	0.405061228300	0.644191175486	0.987466138618	-0.035929816594	0.651325724145	0.986876689674	-0.109958627813	
